# xmcd
#
# Track frame offsets: 
#        150
#        20005
#        42593
#        61080
#        76898
#        91256
#        107815
#        121930
#        135193
#        153075
#        169033
#        190090
#
# Disc length: 2751 seconds
#
# Revision: 1
# Processed by: cddbd v1.5.2PL0 Copyright (c) Steve Scherf et al.
# Submitted via: ExactAudioCopy v0.99pb5
#
DISCID=8a0abd0c
DTITLE=Hey Negrita - You Can Kick
DYEAR=2008
DGENRE=Folk
TTITLE0=Room Service
TTITLE1=Cold
TTITLE2=Rope
TTITLE3=Chained
TTITLE4=Lay Me Down
TTITLE5=Go Again
TTITLE6=Pass You By
TTITLE7=Lies
TTITLE8=Here I Come
TTITLE9=You Can Kick
TTITLE10=Fishin'
TTITLE11=The Last Thing That I Do
EXTD=
EXTT0=
EXTT1=
EXTT2=
EXTT3=
EXTT4=
EXTT5=
EXTT6=
EXTT7=
EXTT8=
EXTT9=
EXTT10=
EXTT11=
PLAYORDER=
